<svg width="36" height="30" viewBox="0 0 36 30" fill="none" xmlns="http://www.w3.org/2000/svg">
<path d="M10.5 30V24H0L5.775 15H3L13.5 0L18 6.45L22.5 0L33 15H30.225L36 24H25.5V30H19.5V24H16.5V30H10.5V30M25.0875 21H30.525L24.7125 12H27.225L22.5 5.25L19.8375 9.0375L24 15H21.225L25.0875 21V21M5.475 21H21.525L15.7125 12H18.225L13.5 5.25L8.775 12H11.2875L5.475 21V21M5.475 21H11.2875H8.775H13.5H18.225H15.7125H21.525H5.475V21M25.0875 21H21.225H24H19.8375H22.5H27.225H24.7125H30.525H25.0875V21M19.5 24H25.5V24H19.5V24V24M27.0375 24V24V24V24V24V24V24V24V24V24" fill="#006591"/>
</svg>
